<?xml version="1.0" encoding="utf-8"?>
<!-- Generator: Adobe Illustrator 18.1.1, SVG Export Plug-In . SVG Version: 6.00 Build 0)  -->
<!DOCTYPE svg PUBLIC "-//W3C//DTD SVG 1.1//EN" "http://www.w3.org/Graphics/SVG/1.1/DTD/svg11.dtd">
<svg version="1.1" id="Layer_1" xmlns="http://www.w3.org/2000/svg" xmlns:xlink="http://www.w3.org/1999/xlink" x="0px" y="0px"
	 viewBox="-383 145 512 512" enable-background="new -383 145 512 512" xml:space="preserve">
<path id="photo-camera-4-icon" fill="#284256" d="M-43.3,422.5c0,29.4-23.9,53.3-53.3,53.3c-29.4,0-53.3-23.9-53.3-53.3
	c0-29.4,23.9-53.3,53.3-53.3C-67.3,369.2-43.3,393.1-43.3,422.5z M79,293.1v267h-412v-267h113.2c11.3,0,21.6-6.3,26.7-16.3
	l17.9-34.9h153.7l19.8,35.8c5.3,9.5,15.3,15.5,26.2,15.5H79z M-228.2,351.4c0-11.3-9.2-20.5-20.5-20.5c-11.3,0-20.5,9.2-20.5,20.5
	s9.2,20.5,20.5,20.5S-228.2,362.7-228.2,351.4z M2.5,422.5c0-54.7-44.5-96.9-99.1-96.9s-99.1,42.2-99.1,96.9
	c0,54.7,44.5,99.1,99.1,99.1S2.5,477.1,2.5,422.5z M-240.7,249.6h-65.5v27h65.5V249.6z"/>
</svg>
