<?xml version="1.0" encoding="utf-8"?>
<!-- Generator: Adobe Illustrator 18.1.1, SVG Export Plug-In . SVG Version: 6.00 Build 0)  -->
<!DOCTYPE svg PUBLIC "-//W3C//DTD SVG 1.1//EN" "http://www.w3.org/Graphics/SVG/1.1/DTD/svg11.dtd">
<svg version="1.1" id="Layer_1" xmlns="http://www.w3.org/2000/svg" xmlns:xlink="http://www.w3.org/1999/xlink" x="0px" y="0px"
	 viewBox="0 0 800 800" enable-background="new 0 0 800 800" xml:space="preserve">
<path id="flask-7-icon" fill="#284256" d="M397,247.7c0,17.8-14.4,32.2-32.2,32.2c-17.8,0-32.2-14.4-32.2-32.2s14.4-32.2,32.2-32.2
	C382.6,215.5,397,230,397,247.7z M447.3,94.4c0,14.5-11.7,26.2-26.3,26.2c-14.5,0-26.2-11.7-26.2-26.2s11.7-26.3,26.2-26.3
	C435.5,68.1,447.3,79.8,447.3,94.4z M459.9,242.5c-24.8,0-45.2-20.2-45.2-45.2c0-24.8,20.2-45.2,45.2-45.2s45.2,20.2,45.2,45.2
	S484.9,242.5,459.9,242.5z M339.9,187.2c-21.3,0-38.4-17.2-38.4-38.4s17.2-38.4,38.4-38.4c21.2,0,38.4,17.2,38.4,38.4
	S361,187.2,339.9,187.2z M530.9,711.9H269.3c-35.5,0-58.7-37-43.4-69.1L300.2,488c20.8-43.1,31.4-90.3,31.4-138v-30.6h45.6
	c0,32.5,3.9,91.7-25.3,164.8H416L497.4,655c8.9,18.8,35.5,8.6,26.2-10.6c-8.3-17.3-23.9-50.3-65.3-136.4
	c-41.2-85.8-35.8-156.1-35.8-188.6h45.6V350c0,47.8,10.8,95,31.4,138L574,642.8C589.6,674.8,566.3,711.9,530.9,711.9z"/>
</svg>
