<?xml version="1.0" encoding="utf-8"?>
<!-- Generator: Adobe Illustrator 18.1.0, SVG Export Plug-In . SVG Version: 6.00 Build 0)  -->
<!DOCTYPE svg PUBLIC "-//W3C//DTD SVG 1.1//EN" "http://www.w3.org/Graphics/SVG/1.1/DTD/svg11.dtd">
<svg version="1.1" id="Layer_1" xmlns="http://www.w3.org/2000/svg" xmlns:xlink="http://www.w3.org/1999/xlink" x="0px" y="0px"
	 viewBox="-383 145 512 512" enable-background="new -383 145 512 512" xml:space="preserve">
<path id="home-3-icon" fill="#DDDDDD" d="M-265,424.7l30.5,161.2h217.4l30.5-162.1l-139.2-120.6L-265,424.7z M-126.8,546.6
	c-10.2,0-18.4-8.2-18.4-18.4c0-10.2,8.2-18.4,18.4-18.4c10.2,0,18.4,8.2,18.4,18.4C-108.4,538.4-116.6,546.6-126.8,546.6z
	 M-78.5,437.7c0,26.7-21.6,48.3-48.3,48.3c-26.7,0-48.3-21.6-48.3-48.3c0-26.7,21.6-48.3,48.3-48.3
	C-100.1,389.4-78.5,411-78.5,437.7z M79,401l-27.1,27.1l-177.7-157.8l-180.1,157.8L-333,401l207.2-184.9L79,401z"/>
</svg>
