<?xml version="1.0" encoding="utf-8"?>
<!-- Generator: Adobe Illustrator 18.1.0, SVG Export Plug-In . SVG Version: 6.00 Build 0)  -->
<!DOCTYPE svg PUBLIC "-//W3C//DTD SVG 1.1//EN" "http://www.w3.org/Graphics/SVG/1.1/DTD/svg11.dtd">
<svg version="1.1" id="Layer_1" xmlns="http://www.w3.org/2000/svg" xmlns:xlink="http://www.w3.org/1999/xlink" x="0px" y="0px"
	 viewBox="-383 145 512 512" enable-background="new -383 145 512 512" xml:space="preserve">
<path id="linkedin-square-rounded-icon" fill="#D58A00" d="M28.9,195h-312c-27.6,0-50,22.4-50,50v312c0,27.6,22.4,50,50,50h312
	c27.6,0,50-22.4,50-50V245C78.9,217.4,56.6,195,28.9,195z M-202,538h-56.5V355.3h56.5V538z M-230.5,331.4
	c-18.5,0-33.4-15.1-33.4-33.7c0-18.6,15-33.7,33.4-33.7c18.5,0,33.4,15.1,33.4,33.7C-197.1,316.3-212.1,331.4-230.5,331.4z M9.9,538
	h-56.3c0,0,0-69.6,0-95.9c0-26.3-10-41-30.8-41c-22.6,0-34.5,15.3-34.5,41c0,28.1,0,95.9,0,95.9h-54.2V355.3h54.2v24.6
	c0,0,16.3-30.2,55-30.2s66.5,23.6,66.5,72.6C9.9,471.3,9.9,538,9.9,538z"/>
</svg>
