<?xml version="1.0" encoding="utf-8"?>
<!-- Generator: Adobe Illustrator 18.1.1, SVG Export Plug-In . SVG Version: 6.00 Build 0)  -->
<!DOCTYPE svg PUBLIC "-//W3C//DTD SVG 1.1//EN" "http://www.w3.org/Graphics/SVG/1.1/DTD/svg11.dtd">
<svg version="1.1" id="Layer_1" xmlns="http://www.w3.org/2000/svg" xmlns:xlink="http://www.w3.org/1999/xlink" x="0px" y="0px"
	 viewBox="-383 145 512 512" enable-background="new -383 145 512 512" xml:space="preserve">
<path id="paintbrush-8-icon" fill="#284256" d="M-333,195c48,20.6,149.1,16.4,142.6,109.4l-36.8,37.5
	C-318.8,343.5-317.1,245.7-333,195z M-146.2,459.4c46.5,35.2,203,145.1,203,145.1c12.9,8.8,28.5-7.2,19.5-19.9
	c0,0-113.4-153.9-149.7-199.5c-28.6-36.1-43-37.3-93.7-52.3l-33.5,34.3C-184.5,417.4-182.9,431.6-146.2,459.4z M-229.9,516.6
	l45-45.1c-4.5-4.2-8.4-8.3-11.9-12.4l-45.3,45.4L-229.9,516.6z M-88.4,325l82.5-82.6l37,37l-80.6,80.8c7.5,9,14,17.5,21.4,27.2
	L79,280l-85-85l-115.4,115.6C-109.2,314.5-98.5,318.9-88.4,325z M-5.3,267.2l-68.2,68.3c4.1,3.4,8.3,7.3,12.6,11.7l67.7-67.9
	L-5.3,267.2z M-171.9,482.7l-61.8,61.9l-51.1,14.2l14.1-51.1l63.1-63.3c-6.1-10-10.6-20.6-14.8-32.7l-79.4,79.6L-333,607l116.3-30.7
	l72.6-72.7C-161.3,491.1-161.9,490.7-171.9,482.7z"/>
</svg>
