<?xml version="1.0" encoding="utf-8"?>
<!-- Generator: Adobe Illustrator 18.1.1, SVG Export Plug-In . SVG Version: 6.00 Build 0)  -->
<!DOCTYPE svg PUBLIC "-//W3C//DTD SVG 1.1//EN" "http://www.w3.org/Graphics/SVG/1.1/DTD/svg11.dtd">
<svg version="1.1" id="Layer_1" xmlns="http://www.w3.org/2000/svg" xmlns:xlink="http://www.w3.org/1999/xlink" x="0px" y="0px"
	 viewBox="-383 145 512 512" enable-background="new -383 145 512 512" xml:space="preserve">
<path id="plus-5-icon" fill="#284256" d="M-19.3,433.4h-76.2v76.2h-58.9v-76.2h-76.2v-58.9h76.2v-76.2h58.9v76.2h76.2V433.4z
	 M79,401c0,113.8-92.2,206-206,206s-206-92.2-206-206s92.2-206,206-206S79,287.2,79,401z M39,401c0-91.8-74.3-166-166-166
	c-91.8,0-166,74.3-166,166c0,91.8,74.3,166,166,166C-35.2,567,39,492.7,39,401z"/>
</svg>
