<?xml version="1.0" encoding="utf-8"?>
<!-- Generator: Adobe Illustrator 18.1.1, SVG Export Plug-In . SVG Version: 6.00 Build 0)  -->
<!DOCTYPE svg PUBLIC "-//W3C//DTD SVG 1.1//EN" "http://www.w3.org/Graphics/SVG/1.1/DTD/svg11.dtd">
<svg version="1.1" id="Layer_1" xmlns="http://www.w3.org/2000/svg" xmlns:xlink="http://www.w3.org/1999/xlink" x="0px" y="0px"
	 viewBox="-383 145 512 512" enable-background="new -383 145 512 512" xml:space="preserve">
<path id="arrow-28-icon" fill="#223947" d="M-293,401c0,91.8,74.3,166,166,166c91.8,0,166-74.3,166-166c0-91.8-74.3-166-166-166
	C-218.8,235-293,309.3-293,401z M79,401c0,113.8-92.2,206-206,206s-206-92.2-206-206s92.2-206,206-206S79,287.2,79,401z M-183,313.6
	l32.3-32.1L-30.8,402l-119.9,120.5l-32.3-32.1l88-88.4L-183,313.6z"/>
</svg>
